<?xml version="1.0" encoding="UTF-8"?>
<!DOCTYPE svg PUBLIC "-//W3C//DTD SVG 1.1//EN" "http://www.w3.org/Graphics/SVG/1.1/DTD/svg11.dtd">
<!-- Creator: CorelDRAW 2017 -->
<svg xmlns="http://www.w3.org/2000/svg" xml:space="preserve" width="7.889mm" height="7.889mm" version="1.1" style="shape-rendering:geometricPrecision; text-rendering:geometricPrecision; image-rendering:optimizeQuality; fill-rule:evenodd; clip-rule:evenodd"
viewBox="0 0 789 789"
 xmlns:xlink="http://www.w3.org/1999/xlink">
 <defs>
  <style type="text/css">
   <![CDATA[
    .fil0 {fill:#FEFEFE}
   ]]>
  </style>
 </defs>
 <g id="Слой_x0020_1">
  <metadata id="CorelCorpID_0Corel-Layer"/>
  <path class="fil0" d="M84 0l622 0c46,0 84,38 84,84l0 622c0,46 -38,84 -84,84l-622 0c-46,0 -84,-38 -84,-84l0 -622c0,-46 38,-84 84,-84zm147 457l50 156c6,18 28,24 41,10l67 -69 133 96c18,13 44,7 48,-13l89 -429c5,-22 -15,-41 -41,-31l-521 205c-6,3 -13,10 -13,17 1,8 8,16 16,18l130 40zm65 128l13 -93 245 -218c10,-8 2,-17 -8,-10l-292 185 42 137z"/>
 </g>
</svg>
