<?xml version="1.0" encoding="UTF-8"?>
<!DOCTYPE svg PUBLIC "-//W3C//DTD SVG 1.1//EN" "http://www.w3.org/Graphics/SVG/1.1/DTD/svg11.dtd">
<!-- Creator: CorelDRAW 2017 -->
<svg xmlns="http://www.w3.org/2000/svg" xml:space="preserve" width="13.234mm" height="7.889mm" version="1.1" style="shape-rendering:geometricPrecision; text-rendering:geometricPrecision; image-rendering:optimizeQuality; fill-rule:evenodd; clip-rule:evenodd"
viewBox="0 0 1323 789"
 xmlns:xlink="http://www.w3.org/1999/xlink">
 <defs>
  <style type="text/css">
   <![CDATA[
    .fil0 {fill:#FEFEFE}
   ]]>
  </style>
 </defs>
 <g id="Слой_x0020_1">
  <metadata id="CorelCorpID_0Corel-Layer"/>
  <path class="fil0" d="M0 48c1,-26 22,-48 45,-48l235 1c32,0 38,25 47,44 54,111 85,220 180,315l1 -170c0,-13 -2,-28 -11,-38 -8,-9 -19,-17 -27,-26 -16,-18 -24,-41 -22,-62 2,-26 26,-62 53,-62l245 -2c42,0 86,45 87,91l1 195c69,-85 127,-165 183,-255 9,-19 27,-29 44,-30l186 -1c20,0 45,12 56,31 16,27 14,57 4,83 -41,107 -108,209 -180,301 67,71 135,140 177,224 16,32 24,68 11,104 -9,23 -34,44 -59,44l-199 1c-35,0 -72,-29 -96,-58 -42,-52 -81,-103 -130,-149l-1 121c0,41 -39,67 -72,74 -39,8 -76,13 -115,13 -112,-2 -246,-75 -334,-176 -99,-115 -182,-248 -244,-389 -9,-21 -2,-46 18,-59 27,-17 59,-3 72,25 54,110 104,217 188,318 76,90 187,221 392,176l1 -130c0,-29 12,-59 41,-77 30,-18 65,-9 92,10 14,10 27,21 39,33 58,58 109,134 157,172l155 0c-21,-54 -62,-95 -103,-147 -26,-32 -59,-63 -91,-95 -8,-8 -12,-20 -12,-32 -1,-12 2,-24 9,-33 73,-91 137,-180 189,-291l-124 0c-71,109 -142,220 -236,302 -27,23 -58,29 -86,19 -11,-10 -30,-20 -31,-35l-1 -285 -162 0c13,27 30,50 30,78l-2 242c0,24 -24,49 -50,53 -48,7 -87,-15 -120,-48 -78,-90 -138,-200 -186,-325l-204 -1c-21,0 -43,-23 -42,-49z"/>
 </g>
</svg>
